<mxfile host="65bd71144e">
    <diagram id="bqZn0Qs7LkTpNewt64jQ" name="Page-1">
        <mxGraphModel dx="1011" dy="1066" grid="1" gridSize="10" guides="1" tooltips="1" connect="1" arrows="1" fold="1" page="1" pageScale="1" pageWidth="850" pageHeight="1100" math="0" shadow="0">
            <root>
                <mxCell id="0"/>
                <mxCell id="1" parent="0"/>
                <mxCell id="8" value="" style="rounded=0;dashed=0;container=0;collapsible=0;recursiveResize=0;" parent="1" vertex="1">
                    <mxGeometry x="160" y="80" width="160" height="640" as="geometry"/>
                </mxCell>
                <mxCell id="9" value="线程1" style="rounded=0;dashed=0;" parent="8" vertex="1">
                    <mxGeometry x="30" y="10" width="100" height="30" as="geometry"/>
                </mxCell>
                <mxCell id="10" value="" style="rounded=0;dashed=0;" parent="8" vertex="1">
                    <mxGeometry x="75" y="60" width="10" height="540" as="geometry"/>
                </mxCell>
                <mxCell id="11" value="" style="html=1;verticalAlign=bottom;startArrow=none;endArrow=none;dashed=1;" parent="8" source="10" target="9" edge="1">
                    <mxGeometry relative="1" as="geometry"/>
                </mxCell>
                <mxCell id="12" value="" style="html=1;verticalAlign=bottom;startArrow=none;endArrow=none;dashed=1;" parent="8" target="10" edge="1">
                    <mxGeometry relative="1" as="geometry">
                        <mxPoint x="80" y="150" as="sourcePoint"/>
                    </mxGeometry>
                </mxCell>
                <mxCell id="35" value="&lt;span style=&quot;font-size: 12px&quot;&gt;任务i，执行中&lt;/span&gt;&lt;br style=&quot;font-size: 12px&quot;&gt;&lt;span style=&quot;font-size: 12px&quot;&gt;等待[线程2]中的[任务k]的结果&lt;br&gt;&lt;br&gt;&lt;/span&gt;" style="edgeLabel;html=1;align=center;verticalAlign=middle;resizable=0;points=[];" parent="12" vertex="1" connectable="0">
                    <mxGeometry x="-0.2593" relative="1" as="geometry">
                        <mxPoint x="5" y="93" as="offset"/>
                    </mxGeometry>
                </mxCell>
                <mxCell id="13" value="" style="html=1;verticalAlign=bottom;startArrow=none;endArrow=open;endFill=0;" parent="8" edge="1">
                    <mxGeometry relative="1" as="geometry">
                        <mxPoint y="60" as="sourcePoint"/>
                        <mxPoint x="75" y="60" as="targetPoint"/>
                    </mxGeometry>
                </mxCell>
                <mxCell id="19" value="" style="rounded=0;dashed=0;container=0;collapsible=0;recursiveResize=0;" parent="1" vertex="1">
                    <mxGeometry x="520" y="80" width="160" height="640" as="geometry"/>
                </mxCell>
                <mxCell id="20" value="线程2" style="rounded=0;dashed=0;" parent="19" vertex="1">
                    <mxGeometry x="30" y="10" width="100" height="30" as="geometry"/>
                </mxCell>
                <mxCell id="21" value="" style="rounded=0;dashed=0;" parent="19" vertex="1">
                    <mxGeometry x="75" y="60" width="10" height="540" as="geometry"/>
                </mxCell>
                <mxCell id="22" value="" style="html=1;verticalAlign=bottom;startArrow=none;endArrow=none;dashed=1;" parent="19" source="21" target="20" edge="1">
                    <mxGeometry relative="1" as="geometry"/>
                </mxCell>
                <mxCell id="23" value="" style="html=1;verticalAlign=bottom;startArrow=none;endArrow=none;dashed=1;" parent="19" target="21" edge="1">
                    <mxGeometry relative="1" as="geometry">
                        <mxPoint x="80" y="150" as="sourcePoint"/>
                    </mxGeometry>
                </mxCell>
                <mxCell id="36" value="&lt;span style=&quot;font-size: 12px&quot;&gt;任务j，执行中&lt;/span&gt;&lt;br style=&quot;font-size: 12px&quot;&gt;&lt;span style=&quot;font-size: 12px&quot;&gt;等待[线程1]中的[任务m]的结果&lt;/span&gt;" style="edgeLabel;html=1;align=center;verticalAlign=middle;resizable=0;points=[];" parent="23" vertex="1" connectable="0">
                    <mxGeometry x="-0.4889" y="-1" relative="1" as="geometry">
                        <mxPoint x="-6" y="73" as="offset"/>
                    </mxGeometry>
                </mxCell>
                <mxCell id="24" value="" style="html=1;verticalAlign=bottom;startArrow=none;endArrow=open;endFill=0;" parent="19" edge="1">
                    <mxGeometry relative="1" as="geometry">
                        <mxPoint y="60" as="sourcePoint"/>
                        <mxPoint x="75" y="60" as="targetPoint"/>
                    </mxGeometry>
                </mxCell>
                <mxCell id="37" value="" style="group" parent="1" vertex="1" connectable="0">
                    <mxGeometry x="40" y="120" width="80" height="500" as="geometry"/>
                </mxCell>
                <mxCell id="2" value="线程1任务队列&lt;br&gt;&lt;br&gt;&lt;br&gt;&lt;br&gt;&lt;br&gt;&lt;br&gt;&lt;br&gt;&lt;br&gt;&lt;br&gt;&lt;br&gt;&lt;br&gt;&lt;br&gt;&lt;br&gt;&lt;br&gt;&lt;br&gt;&lt;br&gt;&lt;br&gt;&lt;br&gt;&lt;br&gt;&lt;br&gt;&lt;br&gt;&lt;br&gt;&lt;br&gt;&lt;br&gt;&lt;br&gt;&lt;br&gt;&lt;br&gt;&lt;br&gt;&lt;br&gt;" style="rounded=0;whiteSpace=wrap;html=1;" parent="37" vertex="1">
                    <mxGeometry width="80" height="490" as="geometry"/>
                </mxCell>
                <mxCell id="4" value="任务1" style="rounded=0;whiteSpace=wrap;html=1;" parent="37" vertex="1">
                    <mxGeometry y="80" width="80" height="60" as="geometry"/>
                </mxCell>
                <mxCell id="5" value="任务i" style="rounded=0;whiteSpace=wrap;html=1;" parent="37" vertex="1">
                    <mxGeometry y="240" width="80" height="60" as="geometry"/>
                </mxCell>
                <mxCell id="6" value="任务n" style="rounded=0;whiteSpace=wrap;html=1;" parent="37" vertex="1">
                    <mxGeometry y="440" width="80" height="60" as="geometry"/>
                </mxCell>
                <mxCell id="7" value="任务2" style="rounded=0;whiteSpace=wrap;html=1;" parent="37" vertex="1">
                    <mxGeometry y="140" width="80" height="60" as="geometry"/>
                </mxCell>
                <mxCell id="30" value="任务m" style="rounded=0;whiteSpace=wrap;html=1;" parent="37" vertex="1">
                    <mxGeometry y="350" width="80" height="60" as="geometry"/>
                </mxCell>
                <mxCell id="38" value="" style="group" parent="1" vertex="1" connectable="0">
                    <mxGeometry x="720" y="120" width="80" height="500" as="geometry"/>
                </mxCell>
                <mxCell id="25" value="线程2任务队列&lt;br&gt;&lt;br&gt;&lt;br&gt;&lt;br&gt;&lt;br&gt;&lt;br&gt;&lt;br&gt;&lt;br&gt;&lt;br&gt;&lt;br&gt;&lt;br&gt;&lt;br&gt;&lt;br&gt;&lt;br&gt;&lt;br&gt;&lt;br&gt;&lt;br&gt;&lt;br&gt;&lt;br&gt;&lt;br&gt;&lt;br&gt;&lt;br&gt;&lt;br&gt;&lt;br&gt;&lt;br&gt;&lt;br&gt;&lt;br&gt;&lt;br&gt;" style="rounded=0;whiteSpace=wrap;html=1;" parent="38" vertex="1">
                    <mxGeometry width="80" height="490" as="geometry"/>
                </mxCell>
                <mxCell id="26" value="任务1" style="rounded=0;whiteSpace=wrap;html=1;" parent="38" vertex="1">
                    <mxGeometry y="80" width="80" height="60" as="geometry"/>
                </mxCell>
                <mxCell id="27" value="任务j" style="rounded=0;whiteSpace=wrap;html=1;" parent="38" vertex="1">
                    <mxGeometry y="230" width="80" height="60" as="geometry"/>
                </mxCell>
                <mxCell id="28" value="任务n" style="rounded=0;whiteSpace=wrap;html=1;" parent="38" vertex="1">
                    <mxGeometry y="440" width="80" height="60" as="geometry"/>
                </mxCell>
                <mxCell id="29" value="任务2" style="rounded=0;whiteSpace=wrap;html=1;" parent="38" vertex="1">
                    <mxGeometry y="140" width="80" height="60" as="geometry"/>
                </mxCell>
                <mxCell id="31" value="任务k" style="rounded=0;whiteSpace=wrap;html=1;" parent="38" vertex="1">
                    <mxGeometry y="340" width="80" height="60" as="geometry"/>
                </mxCell>
                <mxCell id="39" value="" style="endArrow=classic;html=1;exitX=0;exitY=0.5;exitDx=0;exitDy=0;entryX=1.333;entryY=0.294;entryDx=0;entryDy=0;entryPerimeter=0;" parent="1" source="27" target="21" edge="1">
                    <mxGeometry width="50" height="50" relative="1" as="geometry">
                        <mxPoint x="400" y="260" as="sourcePoint"/>
                        <mxPoint x="600" y="300" as="targetPoint"/>
                    </mxGeometry>
                </mxCell>
                <mxCell id="40" style="edgeStyle=none;html=1;exitX=1;exitY=0.5;exitDx=0;exitDy=0;" parent="1" source="5" edge="1">
                    <mxGeometry relative="1" as="geometry">
                        <mxPoint x="210" y="310" as="targetPoint"/>
                    </mxGeometry>
                </mxCell>
                <mxCell id="41" value="" style="endArrow=classic;html=1;entryX=0;entryY=0.25;entryDx=0;entryDy=0;" parent="1" target="31" edge="1">
                    <mxGeometry width="50" height="50" relative="1" as="geometry">
                        <mxPoint x="270" y="310" as="sourcePoint"/>
                        <mxPoint x="450" y="210" as="targetPoint"/>
                    </mxGeometry>
                </mxCell>
                <mxCell id="42" value="" style="endArrow=classic;html=1;entryX=1;entryY=0.5;entryDx=0;entryDy=0;exitX=-0.367;exitY=0.298;exitDx=0;exitDy=0;exitPerimeter=0;" parent="1" source="21" target="30" edge="1">
                    <mxGeometry width="50" height="50" relative="1" as="geometry">
                        <mxPoint x="520" y="500" as="sourcePoint"/>
                        <mxPoint x="450" y="210" as="targetPoint"/>
                    </mxGeometry>
                </mxCell>
                <mxCell id="43" value="相互等待执行结果造成的死锁说明" style="rounded=0;whiteSpace=wrap;html=1;" parent="1" vertex="1">
                    <mxGeometry x="290" y="10" width="265" height="60" as="geometry"/>
                </mxCell>
            </root>
        </mxGraphModel>
    </diagram>
</mxfile>